<svg width="266" height="103" viewBox="0 0 266 103" fill="none" xmlns="http://www.w3.org/2000/svg">
<path d="M55.412 61.556C55.1587 62.164 54.9813 62.7973 54.88 63.456C54.7787 64.064 54.7027 64.672 54.652 65.28C54.5507 66.952 54.2973 68.5733 53.892 70.144C53.5373 71.664 53.1067 73.2347 52.6 74.856C52.296 75.6667 51.9667 76.452 51.612 77.212C51.2573 77.9213 50.8267 78.6307 50.32 79.34C49.2053 80.86 47.8373 81.6453 46.216 81.696C44.6453 81.7467 43.2267 81.1893 41.96 80.024C41.3013 79.3653 40.7187 78.6813 40.212 77.972C39.756 77.2627 39.3253 76.5027 38.92 75.692C37.6027 73.0067 36.5133 70.2453 35.652 67.408C34.8413 64.5707 34.056 61.7333 33.296 58.896C32.6373 56.2613 32.0293 53.652 31.472 51.068C30.9653 48.4333 30.484 45.7987 30.028 43.164C29.724 41.5427 29.4707 39.9467 29.268 38.376C29.0653 36.7547 28.9387 35.1587 28.888 33.588C28.888 32.0173 29.1413 30.548 29.648 29.18C30.3067 27.964 31.1933 27.3813 32.308 27.432C32.8653 27.4827 33.3213 27.6853 33.676 28.04C34.0813 28.344 34.3853 28.724 34.588 29.18C34.8413 29.8387 35.044 30.548 35.196 31.308C35.348 32.0173 35.4747 32.752 35.576 33.512C35.9307 35.4373 36.2853 37.388 36.64 39.364C36.9947 41.2893 37.3747 43.24 37.78 45.216C38.1347 47.04 38.4893 48.8893 38.844 50.764C39.2493 52.6387 39.6547 54.488 40.06 56.312C40.4147 57.9333 40.7947 59.5547 41.2 61.176C41.6053 62.7467 42.0867 64.3173 42.644 65.888C43.0493 66.952 43.4547 67.9907 43.86 69.004C44.2653 70.0173 44.7467 71.0307 45.304 72.044C45.3547 72.1453 45.38 72.2467 45.38 72.348C45.4307 72.4493 45.5573 72.5253 45.76 72.576C46.1653 71.7147 46.4187 70.8027 46.52 69.84C47.1787 66.952 47.736 64.0387 48.192 61.1C48.648 58.1613 49.0533 55.2227 49.408 52.284C49.56 50.5613 49.712 48.864 49.864 47.192C50.016 45.4693 50.1933 43.7973 50.396 42.176C50.4973 41.4667 50.5987 40.7827 50.7 40.124C50.8013 39.4653 50.928 38.8067 51.08 38.148C51.2827 37.2867 51.7133 36.5267 52.372 35.868C53.0813 35.26 53.968 35.0067 55.032 35.108C56.096 35.2093 56.9067 35.6147 57.464 36.324C58.0213 36.8813 58.4013 37.5147 58.604 38.224C58.8067 38.9333 58.9333 39.6427 58.984 40.352C59.3387 42.8853 59.7187 45.444 60.124 48.028C60.58 50.5613 61.036 53.0947 61.492 55.628C61.8467 57.5027 62.252 59.352 62.708 61.176C63.164 63 63.696 64.7987 64.304 66.572C64.7093 67.6867 65.1653 68.776 65.672 69.84C66.1787 70.904 66.7867 71.892 67.496 72.804C67.8 73.2093 68.0027 73.412 68.104 73.412C68.256 73.412 68.5093 73.2093 68.864 72.804C69.5227 71.892 70.0547 70.9293 70.46 69.916C70.8653 68.9027 71.22 67.8893 71.524 66.876C72.2333 64.4947 72.816 62.088 73.272 59.656C73.7787 57.224 74.184 54.7667 74.488 52.284C74.64 50.6627 74.7667 49.016 74.868 47.344C75.02 45.6213 75.1467 43.924 75.248 42.252C75.3493 40.8333 75.3493 39.44 75.248 38.072C75.1467 36.6533 75.0453 35.2347 74.944 33.816C74.8427 32.3467 74.792 30.9027 74.792 29.484C74.792 28.0147 74.868 26.5453 75.02 25.076C75.2733 23.2013 76.312 22.3907 78.136 22.644C78.6933 22.796 79.1493 23.1 79.504 23.556C79.7573 23.9107 79.9853 24.316 80.188 24.772C80.3907 25.1773 80.5427 25.5827 80.644 25.988C81.2013 27.8627 81.6067 29.788 81.86 31.764C82.1133 33.74 82.2653 35.6907 82.316 37.616C82.5187 46.736 81.6067 55.7293 79.58 64.596C79.2253 66.268 78.7693 67.9147 78.212 69.536C77.6547 71.1573 76.9707 72.7533 76.16 74.324C75.3493 76.0973 74.2853 77.5667 72.968 78.732C71.448 80.2013 69.8013 80.936 68.028 80.936C66.2547 80.8853 64.6333 80.1253 63.164 78.656C61.9987 77.4907 61.0613 76.2747 60.352 75.008C59.2373 73.0827 58.3253 71.1067 57.616 69.08C56.9573 67.0533 56.3493 65.0267 55.792 63C55.7413 62.7467 55.6907 62.5187 55.64 62.316C55.5893 62.0627 55.5133 61.8093 55.412 61.556ZM94.9546 34.044C94.8532 37.6413 94.7519 41.0867 94.6506 44.38C94.5492 47.6733 94.5239 50.916 94.5746 54.108C94.6759 56.388 94.7266 58.668 94.7266 60.948C94.7772 63.228 94.8532 65.4827 94.9546 67.712C95.0052 69.1307 95.0306 70.5493 95.0306 71.968C95.0812 73.3867 95.2079 74.78 95.4106 76.148C95.5119 77.0093 95.6639 77.8453 95.8666 78.656C96.0186 79.2133 96.0439 79.644 95.9426 79.948C95.8919 80.252 95.6386 80.5307 95.1826 80.784C94.7266 81.088 94.2452 81.1893 93.7386 81.088C93.2319 80.9867 92.8266 80.708 92.5226 80.252C92.1679 79.6947 91.8639 79.0867 91.6106 78.428C91.3572 77.7693 91.1799 77.1107 91.0786 76.452C90.7239 74.3747 90.4199 72.272 90.1666 70.144C89.9639 68.016 89.7612 65.9133 89.5586 63.836C89.4066 61.1 89.2292 58.3893 89.0266 55.704C88.8746 52.968 88.7226 50.232 88.5706 47.496C88.3679 44.6587 88.2159 41.8467 88.1146 39.06C88.0132 36.2227 88.1652 33.3853 88.5706 30.548C88.6719 29.788 88.8239 29.0533 89.0266 28.344C89.2292 27.584 89.4066 26.824 89.5586 26.064C89.7106 25.5067 89.9892 24.9493 90.3946 24.392C90.6479 24.0373 90.9266 23.7587 91.2306 23.556C91.5346 23.3533 91.9399 23.252 92.4466 23.252C92.9026 23.3027 93.2572 23.48 93.5106 23.784C93.8146 24.088 94.0172 24.4427 94.1186 24.848C94.4226 25.6587 94.5999 26.4693 94.6506 27.28C94.7519 28.04 94.8026 28.8507 94.8026 29.712C94.9039 30.5227 94.9799 31.3333 95.0306 32.144C95.0812 32.904 95.0559 33.5373 94.9546 34.044ZM132.323 36.78C131.867 37.4387 131.461 38.072 131.107 38.68C130.803 39.2373 130.524 39.7947 130.271 40.352C129.359 41.9227 128.497 43.544 127.687 45.216C126.876 46.8373 126.065 48.5093 125.255 50.232C124.596 51.5493 123.963 52.892 123.355 54.26C122.747 55.628 122.113 57.0213 121.455 58.44C120.948 59.7067 119.96 60.3907 118.491 60.492C117.832 60.5427 117.224 60.416 116.667 60.112C116.16 59.808 115.704 59.3773 115.299 58.82C114.792 58.0093 114.412 57.0973 114.159 56.084C113.551 53.956 112.892 51.8533 112.183 49.776C111.524 47.6987 110.967 45.6213 110.511 43.544C110.46 43.088 110.232 42.632 109.827 42.176C109.827 42.9867 109.751 43.7467 109.599 44.456C109.497 46.9893 109.371 49.548 109.219 52.132C109.117 54.716 109.016 57.2747 108.915 59.808C108.813 61.6827 108.636 63.5573 108.383 65.432C108.18 67.3067 107.952 69.2067 107.699 71.132C107.648 71.74 107.572 72.348 107.471 72.956C107.42 73.5133 107.344 74.1213 107.243 74.78C107.192 75.1347 107.065 75.4893 106.863 75.844C106.66 76.148 106.331 76.3507 105.875 76.452C105.469 76.6547 105.039 76.68 104.583 76.528C104.177 76.3253 103.848 75.996 103.595 75.54C103.392 75.2867 103.24 75.008 103.139 74.704C103.088 74.3493 103.012 73.9947 102.911 73.64C102.556 71.4613 102.252 69.2573 101.999 67.028C101.796 64.7987 101.72 62.5947 101.771 60.416C101.872 55.5013 102.1 50.6627 102.455 45.9C102.607 44.2787 102.733 42.6573 102.835 41.036C102.936 39.4147 103.037 37.768 103.139 36.096C103.24 34.7787 103.367 33.4613 103.519 32.144C103.721 30.776 104 29.4333 104.355 28.116C104.456 27.7107 104.557 27.3307 104.659 26.976C104.811 26.5707 104.988 26.1907 105.191 25.836C106.153 24.316 107.471 23.784 109.143 24.24C110.308 24.544 111.195 25.0507 111.803 25.76C112.411 26.4693 112.892 27.3307 113.247 28.344C114.26 31.08 115.147 33.8667 115.907 36.704C116.717 39.4907 117.553 42.3027 118.415 45.14C118.567 45.748 118.744 46.3813 118.947 47.04C119.149 47.6987 119.352 48.3573 119.555 49.016C119.909 48.9147 120.112 48.7373 120.163 48.484C120.264 48.18 120.365 47.9267 120.467 47.724C121.632 45.8493 122.671 43.924 123.583 41.948C124.495 39.972 125.508 38.0213 126.623 36.096C127.332 34.7787 128.092 33.4867 128.903 32.22C129.713 30.9027 130.549 29.6107 131.411 28.344C131.563 28.0907 131.715 27.812 131.867 27.508C132.069 27.1533 132.221 26.824 132.323 26.52C132.475 25.8107 132.829 25.228 133.387 24.772C133.995 24.316 134.628 24.0627 135.287 24.012C135.996 23.9613 136.655 24.1133 137.263 24.468C137.921 24.8227 138.403 25.3293 138.707 25.988C138.96 26.3427 139.112 26.7733 139.163 27.28C139.264 27.7867 139.34 28.268 139.391 28.724C139.492 29.9907 139.543 31.308 139.543 32.676C139.593 34.044 139.644 35.412 139.695 36.78C139.695 40.0733 139.619 43.3667 139.467 46.66C139.365 49.9533 139.188 53.2467 138.935 56.54C138.833 57.6547 138.783 58.82 138.783 60.036C138.783 61.2013 138.757 62.392 138.707 63.608C138.605 66.04 138.529 68.4973 138.479 70.98C138.479 73.412 138.479 75.844 138.479 78.276C138.479 79.3907 138.023 80.0747 137.111 80.328C136.097 80.5307 135.363 80.1507 134.907 79.188C134.501 78.3267 134.248 77.3893 134.147 76.376C133.944 75.2107 133.817 74.0453 133.767 72.88C133.716 71.664 133.64 70.4987 133.539 69.384C133.387 67.3067 133.285 65.204 133.235 63.076C133.184 60.948 133.057 58.8453 132.855 56.768C132.601 53.6267 132.449 50.4853 132.399 47.344C132.348 44.2027 132.348 41.0613 132.399 37.92C132.399 37.8187 132.399 37.692 132.399 37.54C132.399 37.388 132.373 37.1347 132.323 36.78ZM176.038 36.78C175.582 37.4387 175.176 38.072 174.822 38.68C174.518 39.2373 174.239 39.7947 173.986 40.352C173.074 41.9227 172.212 43.544 171.402 45.216C170.591 46.8373 169.78 48.5093 168.97 50.232C168.311 51.5493 167.678 52.892 167.07 54.26C166.462 55.628 165.828 57.0213 165.17 58.44C164.663 59.7067 163.675 60.3907 162.206 60.492C161.547 60.5427 160.939 60.416 160.382 60.112C159.875 59.808 159.419 59.3773 159.014 58.82C158.507 58.0093 158.127 57.0973 157.874 56.084C157.266 53.956 156.607 51.8533 155.898 49.776C155.239 47.6987 154.682 45.6213 154.226 43.544C154.175 43.088 153.947 42.632 153.542 42.176C153.542 42.9867 153.466 43.7467 153.314 44.456C153.212 46.9893 153.086 49.548 152.934 52.132C152.832 54.716 152.731 57.2747 152.63 59.808C152.528 61.6827 152.351 63.5573 152.098 65.432C151.895 67.3067 151.667 69.2067 151.414 71.132C151.363 71.74 151.287 72.348 151.186 72.956C151.135 73.5133 151.059 74.1213 150.958 74.78C150.907 75.1347 150.78 75.4893 150.578 75.844C150.375 76.148 150.046 76.3507 149.59 76.452C149.184 76.6547 148.754 76.68 148.298 76.528C147.892 76.3253 147.563 75.996 147.31 75.54C147.107 75.2867 146.955 75.008 146.854 74.704C146.803 74.3493 146.727 73.9947 146.626 73.64C146.271 71.4613 145.967 69.2573 145.714 67.028C145.511 64.7987 145.435 62.5947 145.486 60.416C145.587 55.5013 145.815 50.6627 146.17 45.9C146.322 44.2787 146.448 42.6573 146.55 41.036C146.651 39.4147 146.752 37.768 146.854 36.096C146.955 34.7787 147.082 33.4613 147.234 32.144C147.436 30.776 147.715 29.4333 148.07 28.116C148.171 27.7107 148.272 27.3307 148.374 26.976C148.526 26.5707 148.703 26.1907 148.906 25.836C149.868 24.316 151.186 23.784 152.858 24.24C154.023 24.544 154.91 25.0507 155.518 25.76C156.126 26.4693 156.607 27.3307 156.962 28.344C157.975 31.08 158.862 33.8667 159.622 36.704C160.432 39.4907 161.268 42.3027 162.13 45.14C162.282 45.748 162.459 46.3813 162.662 47.04C162.864 47.6987 163.067 48.3573 163.27 49.016C163.624 48.9147 163.827 48.7373 163.878 48.484C163.979 48.18 164.08 47.9267 164.182 47.724C165.347 45.8493 166.386 43.924 167.298 41.948C168.21 39.972 169.223 38.0213 170.338 36.096C171.047 34.7787 171.807 33.4867 172.618 32.22C173.428 30.9027 174.264 29.6107 175.126 28.344C175.278 28.0907 175.43 27.812 175.582 27.508C175.784 27.1533 175.936 26.824 176.038 26.52C176.19 25.8107 176.544 25.228 177.102 24.772C177.71 24.316 178.343 24.0627 179.002 24.012C179.711 23.9613 180.37 24.1133 180.978 24.468C181.636 24.8227 182.118 25.3293 182.422 25.988C182.675 26.3427 182.827 26.7733 182.878 27.28C182.979 27.7867 183.055 28.268 183.106 28.724C183.207 29.9907 183.258 31.308 183.258 32.676C183.308 34.044 183.359 35.412 183.41 36.78C183.41 40.0733 183.334 43.3667 183.182 46.66C183.08 49.9533 182.903 53.2467 182.65 56.54C182.548 57.6547 182.498 58.82 182.498 60.036C182.498 61.2013 182.472 62.392 182.422 63.608C182.32 66.04 182.244 68.4973 182.194 70.98C182.194 73.412 182.194 75.844 182.194 78.276C182.194 79.3907 181.738 80.0747 180.826 80.328C179.812 80.5307 179.078 80.1507 178.622 79.188C178.216 78.3267 177.963 77.3893 177.862 76.376C177.659 75.2107 177.532 74.0453 177.482 72.88C177.431 71.664 177.355 70.4987 177.254 69.384C177.102 67.3067 177 65.204 176.95 63.076C176.899 60.948 176.772 58.8453 176.57 56.768C176.316 53.6267 176.164 50.4853 176.114 47.344C176.063 44.2027 176.063 41.0613 176.114 37.92C176.114 37.8187 176.114 37.692 176.114 37.54C176.114 37.388 176.088 37.1347 176.038 36.78ZM218.233 27.432C218.233 29.256 217.929 31.0547 217.321 32.828C215.75 38.0973 213.47 43.1387 210.481 47.952C209.467 49.624 208.429 51.296 207.365 52.968C206.351 54.5893 205.338 56.2613 204.325 57.984C203.666 59.2 202.982 60.3907 202.273 61.556C201.614 62.7213 200.93 63.8867 200.221 65.052C199.41 66.3187 198.65 67.6107 197.941 68.928C197.282 70.1947 196.649 71.4867 196.041 72.804C195.838 73.2093 195.635 73.5893 195.433 73.944C195.281 74.2987 195.053 74.6027 194.749 74.856C194.242 75.5147 193.685 75.7427 193.077 75.54C192.165 75.2867 191.785 74.6787 191.937 73.716C192.038 72.652 192.266 71.6387 192.621 70.676C193.127 69.2067 193.685 67.7373 194.293 66.268C194.951 64.748 195.61 63.2787 196.269 61.86C197.434 59.3267 198.625 56.844 199.841 54.412C201.107 51.9293 202.349 49.4467 203.565 46.964C204.527 44.836 205.515 42.7333 206.529 40.656C207.593 38.5787 208.53 36.5013 209.341 34.424C209.645 33.6133 209.923 32.8027 210.177 31.992C210.43 31.1307 210.658 30.2947 210.861 29.484C210.962 29.028 211.013 28.572 211.013 28.116C211.063 27.6093 211.089 27.128 211.089 26.672C210.937 24.8987 210.025 24.164 208.353 24.468C207.846 24.5187 207.339 24.6707 206.833 24.924C206.377 25.1267 205.921 25.3547 205.465 25.608C204.097 26.52 202.855 27.5587 201.741 28.724C200.677 29.8893 199.638 31.1307 198.625 32.448C198.371 32.8533 198.143 33.2587 197.941 33.664C197.789 34.0693 197.789 34.5507 197.941 35.108C198.042 35.4627 197.991 35.792 197.789 36.096C197.586 36.4 197.307 36.628 196.953 36.78C195.99 37.236 195.103 37.2107 194.293 36.704C193.735 36.2987 193.33 35.8173 193.077 35.26C192.823 34.652 192.671 34.0187 192.621 33.36C192.57 32.6507 192.621 31.916 192.773 31.156C192.925 30.396 193.178 29.6867 193.533 29.028C194.546 26.8493 195.863 24.9747 197.484 23.404C199.106 21.8333 200.93 20.44 202.957 19.224C203.818 18.6667 204.705 18.2613 205.617 18.008C206.529 17.704 207.466 17.5013 208.429 17.4C210.911 17.248 213.039 17.8813 214.813 19.3C216.586 20.668 217.65 22.5427 218.005 24.924C218.106 25.3293 218.182 25.7347 218.233 26.14C218.334 26.5453 218.334 26.976 218.233 27.432ZM192.165 84.584C192.215 84.584 192.266 84.584 192.317 84.584C192.418 84.6347 192.519 84.66 192.621 84.66C194.445 84.8627 195.205 85.7493 194.901 87.32C194.698 88.3333 194.242 89.0933 193.533 89.6C192.874 90.1573 192.114 90.3347 191.253 90.132C190.493 89.98 189.935 89.6 189.581 88.992C189.226 88.384 189.099 87.7 189.201 86.94C189.251 86.2307 189.555 85.6227 190.113 85.116C190.721 84.66 191.405 84.4827 192.165 84.584ZM225.377 55.02V44C225.428 41.6187 225.453 39.2627 225.453 36.932C225.504 34.6013 225.58 32.2707 225.681 29.94C225.782 28.3187 225.884 26.672 225.985 25C226.137 23.2773 226.314 21.58 226.517 19.908C226.618 18.8947 226.872 18.0333 227.277 17.324C227.936 15.956 228.898 15.348 230.165 15.5C230.874 15.5507 231.457 15.7787 231.913 16.184C232.369 16.5893 232.698 17.1213 232.901 17.78C233.154 18.4387 233.256 19.1227 233.205 19.832C233.205 20.5413 233.18 21.2507 233.129 21.96C233.028 23.2267 232.977 24.4933 232.977 25.76C232.977 26.976 232.952 28.192 232.901 29.408C232.85 31.384 232.698 33.3347 232.445 35.26C232.242 37.1853 232.04 39.1107 231.837 41.036C231.786 41.9987 231.736 42.9613 231.685 43.924C231.685 44.8867 231.634 45.824 231.533 46.736C231.33 48.2053 231.178 49.7 231.077 51.22C231.026 52.74 230.9 54.2347 230.697 55.704C230.596 56.5653 230.52 57.4267 230.469 58.288C230.418 59.1493 230.342 60.036 230.241 60.948C230.089 62.62 229.937 64.3173 229.785 66.04C229.684 67.712 229.532 69.4093 229.329 71.132C229.329 71.4867 229.278 71.8413 229.177 72.196C229.076 72.5 228.949 72.8293 228.797 73.184C228.392 73.9947 227.809 74.324 227.049 74.172C226.34 74.172 225.858 73.7667 225.605 72.956C225.402 72.2973 225.276 71.664 225.225 71.056C225.225 70.448 225.225 69.8147 225.225 69.156C225.225 67.0787 225.225 64.9253 225.225 62.696C225.225 60.416 225.276 57.8573 225.377 55.02ZM229.481 85.496C229.43 85.8507 229.38 86.1547 229.329 86.408C229.278 86.712 229.202 87.016 229.101 87.32C228.544 88.6373 227.556 89.2453 226.137 89.144C225.58 89.0427 225.073 88.7387 224.617 88.232C224.212 87.7253 224.009 87.1427 224.009 86.484C224.009 85.7747 224.136 85.0907 224.389 84.432C224.693 83.824 225.174 83.3427 225.833 82.988C226.542 82.4307 227.277 82.304 228.037 82.608C228.797 82.9627 229.228 83.5707 229.329 84.432C229.43 84.6347 229.456 84.812 229.405 84.964C229.405 85.116 229.43 85.2933 229.481 85.496Z" fill="white"/>
</svg>
