<svg width="240" height="240" viewBox="0 0 240 240" fill="none" xmlns="http://www.w3.org/2000/svg">
<path d="M144.583 33.5625V33.7197C143.396 33.6299 142.209 33.5625 141 33.5625H112.333C108.638 33.5625 105.055 34.0342 101.628 34.9102C101.606 34.4609 101.583 34.0117 101.583 33.5625C101.583 21.6582 111.214 12 123.083 12C134.953 12 144.583 21.6582 144.583 33.5625ZM141 40.75C141.784 40.75 142.568 40.7725 143.329 40.8174C144.27 40.8848 145.21 40.9746 146.151 41.1094C150.093 36.5049 155.96 33.5625 162.5 33.5625H165.076C167.405 33.5625 169.107 35.7637 168.547 38.0322L165.456 50.4307C168.995 53.7549 171.884 57.7979 173.855 62.3125H176.833C180.797 62.3125 184 65.5244 184 69.5V91.0625C184 95.0381 180.797 98.25 176.833 98.25H169.667C167.629 100.968 165.21 103.394 162.5 105.438V119.812C162.5 123.788 159.297 127 155.333 127H148.167C144.203 127 141 123.788 141 119.812V112.625H112.333V119.812C112.333 123.788 109.131 127 105.167 127H98C94.0359 127 90.8333 123.788 90.8333 119.812V105.438C83.0172 99.5527 77.687 90.5459 76.6792 80.2812H70.2292C61.8083 80.2812 55 73.4531 55 65.0078C55 56.5625 61.8083 49.7344 70.2292 49.7344H71.125C74.1036 49.7344 76.5 52.1377 76.5 55.125C76.5 58.1123 74.1036 60.5156 71.125 60.5156H70.2292C67.7656 60.5156 65.75 62.5371 65.75 65.0078C65.75 67.4785 67.7656 69.5 70.2292 69.5H77.2167C79.9266 56.0684 90.1391 45.3545 103.263 41.918C106.152 41.1543 109.198 40.75 112.333 40.75H141ZM155.333 71.2969C155.333 69.8672 154.767 68.4961 153.759 67.4851C152.751 66.4742 151.384 65.9062 149.958 65.9062C148.533 65.9062 147.166 66.4742 146.158 67.4851C145.15 68.4961 144.583 69.8672 144.583 71.2969C144.583 72.7266 145.15 74.0977 146.158 75.1086C147.166 76.1196 148.533 76.6875 149.958 76.6875C151.384 76.6875 152.751 76.1196 153.759 75.1086C154.767 74.0977 155.333 72.7266 155.333 71.2969Z" fill="white"/>
<path d="M42.186 191.018C41.926 191.642 41.744 192.292 41.64 192.968C41.536 193.592 41.458 194.216 41.406 194.84C41.302 196.556 41.042 198.22 40.626 199.832C40.262 201.392 39.82 203.004 39.3 204.668C38.988 205.5 38.65 206.306 38.286 207.086C37.922 207.814 37.48 208.542 36.96 209.27C35.816 210.83 34.412 211.636 32.748 211.688C31.136 211.74 29.68 211.168 28.38 209.972C27.704 209.296 27.106 208.594 26.586 207.866C26.118 207.138 25.676 206.358 25.26 205.526C23.908 202.77 22.79 199.936 21.906 197.024C21.074 194.112 20.268 191.2 19.488 188.288C18.812 185.584 18.188 182.906 17.616 180.254C17.096 177.55 16.602 174.846 16.134 172.142C15.822 170.478 15.562 168.84 15.354 167.228C15.146 165.564 15.016 163.926 14.964 162.314C14.964 160.702 15.224 159.194 15.744 157.79C16.42 156.542 17.33 155.944 18.474 155.996C19.046 156.048 19.514 156.256 19.878 156.62C20.294 156.932 20.606 157.322 20.814 157.79C21.074 158.466 21.282 159.194 21.438 159.974C21.594 160.702 21.724 161.456 21.828 162.236C22.192 164.212 22.556 166.214 22.92 168.242C23.284 170.218 23.674 172.22 24.09 174.248C24.454 176.12 24.818 178.018 25.182 179.942C25.598 181.866 26.014 183.764 26.43 185.636C26.794 187.3 27.184 188.964 27.6 190.628C28.016 192.24 28.51 193.852 29.082 195.464C29.498 196.556 29.914 197.622 30.33 198.662C30.746 199.702 31.24 200.742 31.812 201.782C31.864 201.886 31.89 201.99 31.89 202.094C31.942 202.198 32.072 202.276 32.28 202.328C32.696 201.444 32.956 200.508 33.06 199.52C33.736 196.556 34.308 193.566 34.776 190.55C35.244 187.534 35.66 184.518 36.024 181.502C36.18 179.734 36.336 177.992 36.492 176.276C36.648 174.508 36.83 172.792 37.038 171.128C37.142 170.4 37.246 169.698 37.35 169.022C37.454 168.346 37.584 167.67 37.74 166.994C37.948 166.11 38.39 165.33 39.066 164.654C39.794 164.03 40.704 163.77 41.796 163.874C42.888 163.978 43.72 164.394 44.292 165.122C44.864 165.694 45.254 166.344 45.462 167.072C45.67 167.8 45.8 168.528 45.852 169.256C46.216 171.856 46.606 174.482 47.022 177.134C47.49 179.734 47.958 182.334 48.426 184.934C48.79 186.858 49.206 188.756 49.674 190.628C50.142 192.5 50.688 194.346 51.312 196.166C51.728 197.31 52.196 198.428 52.716 199.52C53.236 200.612 53.86 201.626 54.588 202.562C54.9 202.978 55.108 203.186 55.212 203.186C55.368 203.186 55.628 202.978 55.992 202.562C56.668 201.626 57.214 200.638 57.63 199.598C58.046 198.558 58.41 197.518 58.722 196.478C59.45 194.034 60.048 191.564 60.516 189.068C61.036 186.572 61.452 184.05 61.764 181.502C61.92 179.838 62.05 178.148 62.154 176.432C62.31 174.664 62.44 172.922 62.544 171.206C62.648 169.75 62.648 168.32 62.544 166.916C62.44 165.46 62.336 164.004 62.232 162.548C62.128 161.04 62.076 159.558 62.076 158.102C62.076 156.594 62.154 155.086 62.31 153.578C62.57 151.654 63.636 150.822 65.508 151.082C66.08 151.238 66.548 151.55 66.912 152.018C67.172 152.382 67.406 152.798 67.614 153.266C67.822 153.682 67.978 154.098 68.082 154.514C68.654 156.438 69.07 158.414 69.33 160.442C69.59 162.47 69.746 164.472 69.798 166.448C70.006 175.808 69.07 185.038 66.99 194.138C66.626 195.854 66.158 197.544 65.586 199.208C65.014 200.872 64.312 202.51 63.48 204.122C62.648 205.942 61.556 207.45 60.204 208.646C58.644 210.154 56.954 210.908 55.134 210.908C53.314 210.856 51.65 210.076 50.142 208.568C48.946 207.372 47.984 206.124 47.256 204.824C46.112 202.848 45.176 200.82 44.448 198.74C43.772 196.66 43.148 194.58 42.576 192.5C42.524 192.24 42.472 192.006 42.42 191.798C42.368 191.538 42.29 191.278 42.186 191.018ZM82.7692 162.782C82.6652 166.474 82.5612 170.01 82.4572 173.39C82.3532 176.77 82.3272 180.098 82.3792 183.374C82.4832 185.714 82.5352 188.054 82.5352 190.394C82.5872 192.734 82.6652 195.048 82.7692 197.336C82.8212 198.792 82.8472 200.248 82.8472 201.704C82.8992 203.16 83.0292 204.59 83.2372 205.994C83.3412 206.878 83.4972 207.736 83.7052 208.568C83.8612 209.14 83.8872 209.582 83.7832 209.894C83.7312 210.206 83.4712 210.492 83.0032 210.752C82.5352 211.064 82.0412 211.168 81.5212 211.064C81.0012 210.96 80.5852 210.674 80.2732 210.206C79.9092 209.634 79.5972 209.01 79.3372 208.334C79.0772 207.658 78.8952 206.982 78.7912 206.306C78.4272 204.174 78.1152 202.016 77.8552 199.832C77.6472 197.648 77.4392 195.49 77.2312 193.358C77.0752 190.55 76.8932 187.768 76.6852 185.012C76.5292 182.204 76.3732 179.396 76.2172 176.588C76.0092 173.676 75.8532 170.79 75.7492 167.93C75.6452 165.018 75.8012 162.106 76.2172 159.194C76.3212 158.414 76.4772 157.66 76.6852 156.932C76.8932 156.152 77.0752 155.372 77.2312 154.592C77.3872 154.02 77.6732 153.448 78.0892 152.876C78.3492 152.512 78.6352 152.226 78.9472 152.018C79.2592 151.81 79.6752 151.706 80.1952 151.706C80.6632 151.758 81.0272 151.94 81.2872 152.252C81.5992 152.564 81.8072 152.928 81.9112 153.344C82.2232 154.176 82.4052 155.008 82.4572 155.84C82.5612 156.62 82.6132 157.452 82.6132 158.336C82.7172 159.168 82.7952 160 82.8472 160.832C82.8992 161.612 82.8732 162.262 82.7692 162.782ZM121.121 165.59C120.653 166.266 120.237 166.916 119.873 167.54C119.561 168.112 119.275 168.684 119.015 169.256C118.079 170.868 117.195 172.532 116.363 174.248C115.531 175.912 114.699 177.628 113.867 179.396C113.191 180.748 112.541 182.126 111.917 183.53C111.293 184.934 110.643 186.364 109.967 187.82C109.447 189.12 108.433 189.822 106.925 189.926C106.249 189.978 105.625 189.848 105.053 189.536C104.533 189.224 104.065 188.782 103.649 188.21C103.129 187.378 102.739 186.442 102.479 185.402C101.855 183.218 101.179 181.06 100.451 178.928C99.7748 176.796 99.2028 174.664 98.7348 172.532C98.6828 172.064 98.4488 171.596 98.0328 171.128C98.0328 171.96 97.9548 172.74 97.7988 173.468C97.6948 176.068 97.5648 178.694 97.4088 181.346C97.3048 183.998 97.2008 186.624 97.0968 189.224C96.9928 191.148 96.8108 193.072 96.5508 194.996C96.3428 196.92 96.1088 198.87 95.8488 200.846C95.7968 201.47 95.7188 202.094 95.6148 202.718C95.5628 203.29 95.4848 203.914 95.3808 204.59C95.3288 204.954 95.1988 205.318 94.9908 205.682C94.7828 205.994 94.4448 206.202 93.9768 206.306C93.5608 206.514 93.1188 206.54 92.6508 206.384C92.2348 206.176 91.8968 205.838 91.6368 205.37C91.4288 205.11 91.2728 204.824 91.1688 204.512C91.1168 204.148 91.0388 203.784 90.9348 203.42C90.5708 201.184 90.2588 198.922 89.9988 196.634C89.7908 194.346 89.7128 192.084 89.7648 189.848C89.8688 184.804 90.1028 179.838 90.4668 174.95C90.6228 173.286 90.7528 171.622 90.8568 169.958C90.9608 168.294 91.0648 166.604 91.1688 164.888C91.2728 163.536 91.4028 162.184 91.5588 160.832C91.7668 159.428 92.0528 158.05 92.4168 156.698C92.5208 156.282 92.6248 155.892 92.7288 155.528C92.8848 155.112 93.0668 154.722 93.2748 154.358C94.2628 152.798 95.6148 152.252 97.3308 152.72C98.5268 153.032 99.4368 153.552 100.061 154.28C100.685 155.008 101.179 155.892 101.543 156.932C102.583 159.74 103.493 162.6 104.273 165.512C105.105 168.372 105.963 171.258 106.847 174.17C107.003 174.794 107.185 175.444 107.393 176.12C107.601 176.796 107.809 177.472 108.017 178.148C108.381 178.044 108.589 177.862 108.641 177.602C108.745 177.29 108.849 177.03 108.953 176.822C110.149 174.898 111.215 172.922 112.151 170.894C113.087 168.866 114.127 166.864 115.271 164.888C115.999 163.536 116.779 162.21 117.611 160.91C118.443 159.558 119.301 158.232 120.185 156.932C120.341 156.672 120.497 156.386 120.653 156.074C120.861 155.71 121.017 155.372 121.121 155.06C121.277 154.332 121.641 153.734 122.213 153.266C122.837 152.798 123.487 152.538 124.163 152.486C124.891 152.434 125.567 152.59 126.191 152.954C126.867 153.318 127.361 153.838 127.673 154.514C127.933 154.878 128.089 155.32 128.141 155.84C128.245 156.36 128.323 156.854 128.375 157.322C128.479 158.622 128.531 159.974 128.531 161.378C128.583 162.782 128.635 164.186 128.687 165.59C128.687 168.97 128.609 172.35 128.453 175.73C128.349 179.11 128.167 182.49 127.907 185.87C127.803 187.014 127.751 188.21 127.751 189.458C127.751 190.654 127.725 191.876 127.673 193.124C127.569 195.62 127.491 198.142 127.439 200.69C127.439 203.186 127.439 205.682 127.439 208.178C127.439 209.322 126.971 210.024 126.035 210.284C124.995 210.492 124.241 210.102 123.773 209.114C123.357 208.23 123.097 207.268 122.993 206.228C122.785 205.032 122.655 203.836 122.603 202.64C122.551 201.392 122.473 200.196 122.369 199.052C122.213 196.92 122.109 194.762 122.057 192.578C122.005 190.394 121.875 188.236 121.667 186.104C121.407 182.88 121.251 179.656 121.199 176.432C121.147 173.208 121.147 169.984 121.199 166.76C121.199 166.656 121.199 166.526 121.199 166.37C121.199 166.214 121.173 165.954 121.121 165.59ZM165.986 165.59C165.518 166.266 165.102 166.916 164.738 167.54C164.426 168.112 164.14 168.684 163.88 169.256C162.944 170.868 162.06 172.532 161.228 174.248C160.396 175.912 159.564 177.628 158.732 179.396C158.056 180.748 157.406 182.126 156.782 183.53C156.158 184.934 155.508 186.364 154.832 187.82C154.312 189.12 153.298 189.822 151.79 189.926C151.114 189.978 150.49 189.848 149.918 189.536C149.398 189.224 148.93 188.782 148.514 188.21C147.994 187.378 147.604 186.442 147.344 185.402C146.72 183.218 146.044 181.06 145.316 178.928C144.64 176.796 144.068 174.664 143.6 172.532C143.548 172.064 143.314 171.596 142.898 171.128C142.898 171.96 142.82 172.74 142.664 173.468C142.56 176.068 142.43 178.694 142.274 181.346C142.17 183.998 142.066 186.624 141.962 189.224C141.858 191.148 141.676 193.072 141.416 194.996C141.208 196.92 140.974 198.87 140.714 200.846C140.662 201.47 140.584 202.094 140.48 202.718C140.428 203.29 140.35 203.914 140.246 204.59C140.194 204.954 140.064 205.318 139.856 205.682C139.648 205.994 139.31 206.202 138.842 206.306C138.426 206.514 137.984 206.54 137.516 206.384C137.1 206.176 136.762 205.838 136.502 205.37C136.294 205.11 136.138 204.824 136.034 204.512C135.982 204.148 135.904 203.784 135.8 203.42C135.436 201.184 135.124 198.922 134.864 196.634C134.656 194.346 134.578 192.084 134.63 189.848C134.734 184.804 134.968 179.838 135.332 174.95C135.488 173.286 135.618 171.622 135.722 169.958C135.826 168.294 135.93 166.604 136.034 164.888C136.138 163.536 136.268 162.184 136.424 160.832C136.632 159.428 136.918 158.05 137.282 156.698C137.386 156.282 137.49 155.892 137.594 155.528C137.75 155.112 137.932 154.722 138.14 154.358C139.128 152.798 140.48 152.252 142.196 152.72C143.392 153.032 144.302 153.552 144.926 154.28C145.55 155.008 146.044 155.892 146.408 156.932C147.448 159.74 148.358 162.6 149.138 165.512C149.97 168.372 150.828 171.258 151.712 174.17C151.868 174.794 152.05 175.444 152.258 176.12C152.466 176.796 152.674 177.472 152.882 178.148C153.246 178.044 153.454 177.862 153.506 177.602C153.61 177.29 153.714 177.03 153.818 176.822C155.014 174.898 156.08 172.922 157.016 170.894C157.952 168.866 158.992 166.864 160.136 164.888C160.864 163.536 161.644 162.21 162.476 160.91C163.308 159.558 164.166 158.232 165.05 156.932C165.206 156.672 165.362 156.386 165.518 156.074C165.726 155.71 165.882 155.372 165.986 155.06C166.142 154.332 166.506 153.734 167.078 153.266C167.702 152.798 168.352 152.538 169.028 152.486C169.756 152.434 170.432 152.59 171.056 152.954C171.732 153.318 172.226 153.838 172.538 154.514C172.798 154.878 172.954 155.32 173.006 155.84C173.11 156.36 173.188 156.854 173.24 157.322C173.344 158.622 173.396 159.974 173.396 161.378C173.448 162.782 173.5 164.186 173.552 165.59C173.552 168.97 173.474 172.35 173.318 175.73C173.214 179.11 173.032 182.49 172.772 185.87C172.668 187.014 172.616 188.21 172.616 189.458C172.616 190.654 172.59 191.876 172.538 193.124C172.434 195.62 172.356 198.142 172.304 200.69C172.304 203.186 172.304 205.682 172.304 208.178C172.304 209.322 171.836 210.024 170.9 210.284C169.86 210.492 169.106 210.102 168.638 209.114C168.222 208.23 167.962 207.268 167.858 206.228C167.65 205.032 167.52 203.836 167.468 202.64C167.416 201.392 167.338 200.196 167.234 199.052C167.078 196.92 166.974 194.762 166.922 192.578C166.87 190.394 166.74 188.236 166.532 186.104C166.272 182.88 166.116 179.656 166.064 176.432C166.012 173.208 166.012 169.984 166.064 166.76C166.064 166.656 166.064 166.526 166.064 166.37C166.064 166.214 166.038 165.954 165.986 165.59ZM209.291 155.996C209.291 157.868 208.979 159.714 208.355 161.534C206.743 166.942 204.403 172.116 201.335 177.056C200.295 178.772 199.229 180.488 198.137 182.204C197.097 183.868 196.057 185.584 195.017 187.352C194.341 188.6 193.639 189.822 192.911 191.018C192.235 192.214 191.533 193.41 190.805 194.606C189.973 195.906 189.193 197.232 188.465 198.584C187.789 199.884 187.139 201.21 186.515 202.562C186.307 202.978 186.099 203.368 185.891 203.732C185.735 204.096 185.501 204.408 185.189 204.668C184.669 205.344 184.097 205.578 183.473 205.37C182.537 205.11 182.147 204.486 182.303 203.498C182.407 202.406 182.641 201.366 183.005 200.378C183.525 198.87 184.097 197.362 184.721 195.854C185.397 194.294 186.073 192.786 186.749 191.33C187.945 188.73 189.167 186.182 190.415 183.686C191.715 181.138 192.989 178.59 194.237 176.042C195.225 173.858 196.239 171.7 197.279 169.568C198.371 167.436 199.333 165.304 200.165 163.172C200.477 162.34 200.763 161.508 201.023 160.676C201.283 159.792 201.517 158.934 201.725 158.102C201.829 157.634 201.881 157.166 201.881 156.698C201.933 156.178 201.959 155.684 201.959 155.216C201.803 153.396 200.867 152.642 199.151 152.954C198.631 153.006 198.111 153.162 197.591 153.422C197.123 153.63 196.655 153.864 196.187 154.124C194.783 155.06 193.509 156.126 192.365 157.322C191.273 158.518 190.207 159.792 189.167 161.144C188.907 161.56 188.673 161.976 188.465 162.392C188.309 162.808 188.309 163.302 188.465 163.874C188.569 164.238 188.517 164.576 188.309 164.888C188.101 165.2 187.815 165.434 187.451 165.59C186.463 166.058 185.553 166.032 184.721 165.512C184.149 165.096 183.733 164.602 183.473 164.03C183.213 163.406 183.057 162.756 183.005 162.08C182.953 161.352 183.005 160.598 183.161 159.818C183.317 159.038 183.577 158.31 183.941 157.634C184.981 155.398 186.333 153.474 187.997 151.862C189.661 150.25 191.533 148.82 193.613 147.572C194.497 147 195.407 146.584 196.343 146.324C197.279 146.012 198.241 145.804 199.229 145.7C201.777 145.544 203.961 146.194 205.781 147.65C207.601 149.054 208.693 150.978 209.057 153.422C209.161 153.838 209.239 154.254 209.291 154.67C209.395 155.086 209.395 155.528 209.291 155.996ZM182.537 214.652C182.589 214.652 182.641 214.652 182.693 214.652C182.797 214.704 182.901 214.73 183.005 214.73C184.877 214.938 185.657 215.848 185.345 217.46C185.137 218.5 184.669 219.28 183.941 219.8C183.265 220.372 182.485 220.554 181.601 220.346C180.821 220.19 180.249 219.8 179.885 219.176C179.521 218.552 179.391 217.85 179.495 217.07C179.547 216.342 179.859 215.718 180.431 215.198C181.055 214.73 181.757 214.548 182.537 214.652ZM216.624 184.31V173C216.676 170.556 216.702 168.138 216.702 165.746C216.754 163.354 216.832 160.962 216.936 158.57C217.04 156.906 217.144 155.216 217.248 153.5C217.404 151.732 217.586 149.99 217.794 148.274C217.898 147.234 218.158 146.35 218.574 145.622C219.25 144.218 220.238 143.594 221.538 143.75C222.266 143.802 222.864 144.036 223.332 144.452C223.8 144.868 224.138 145.414 224.346 146.09C224.606 146.766 224.71 147.468 224.658 148.196C224.658 148.924 224.632 149.652 224.58 150.38C224.476 151.68 224.424 152.98 224.424 154.28C224.424 155.528 224.398 156.776 224.346 158.024C224.294 160.052 224.138 162.054 223.878 164.03C223.67 166.006 223.462 167.982 223.254 169.958C223.202 170.946 223.15 171.934 223.098 172.922C223.098 173.91 223.046 174.872 222.942 175.808C222.734 177.316 222.578 178.85 222.474 180.41C222.422 181.97 222.292 183.504 222.084 185.012C221.98 185.896 221.902 186.78 221.85 187.664C221.798 188.548 221.72 189.458 221.616 190.394C221.46 192.11 221.304 193.852 221.148 195.62C221.044 197.336 220.888 199.078 220.68 200.846C220.68 201.21 220.628 201.574 220.524 201.938C220.42 202.25 220.29 202.588 220.134 202.952C219.718 203.784 219.12 204.122 218.34 203.966C217.612 203.966 217.118 203.55 216.858 202.718C216.65 202.042 216.52 201.392 216.468 200.768C216.468 200.144 216.468 199.494 216.468 198.818C216.468 196.686 216.468 194.476 216.468 192.188C216.468 189.848 216.52 187.222 216.624 184.31ZM220.836 215.588C220.784 215.952 220.732 216.264 220.68 216.524C220.628 216.836 220.55 217.148 220.446 217.46C219.874 218.812 218.86 219.436 217.404 219.332C216.832 219.228 216.312 218.916 215.844 218.396C215.428 217.876 215.22 217.278 215.22 216.602C215.22 215.874 215.35 215.172 215.61 214.496C215.922 213.872 216.416 213.378 217.092 213.014C217.82 212.442 218.574 212.312 219.354 212.624C220.134 212.988 220.576 213.612 220.68 214.496C220.784 214.704 220.81 214.886 220.758 215.042C220.758 215.198 220.784 215.38 220.836 215.588Z" fill="white"/>
</svg>
