<svg width="400" height="157" viewBox="0 0 400 157" fill="none" xmlns="http://www.w3.org/2000/svg">
<path d="M106.111 43.375V43.5309C104.97 43.4418 103.829 43.375 102.667 43.375H75.1111C71.559 43.375 68.1146 43.8426 64.8208 44.7109C64.7993 44.2656 64.7778 43.8203 64.7778 43.375C64.7778 31.5742 74.0347 22 85.4444 22C96.8542 22 106.111 31.5742 106.111 43.375ZM102.667 50.5C103.42 50.5 104.174 50.5223 104.906 50.5668C105.81 50.6336 106.714 50.7227 107.618 50.8563C111.407 46.2918 117.047 43.375 123.333 43.375H125.809C128.048 43.375 129.684 45.557 129.146 47.8059L126.175 60.0965C129.576 63.3918 132.353 67.3996 134.248 71.875H137.111C140.922 71.875 144 75.059 144 79V100.375C144 104.316 140.922 107.5 137.111 107.5H130.222C128.263 110.194 125.938 112.599 123.333 114.625V128.875C123.333 132.816 120.255 136 116.444 136H109.556C105.745 136 102.667 132.816 102.667 128.875V121.75H75.1111V128.875C75.1111 132.816 72.0326 136 68.2222 136H61.3333C57.5229 136 54.4444 132.816 54.4444 128.875V114.625C46.9312 108.791 41.8076 99.8629 40.8389 89.6875H34.6389C26.5444 89.6875 20 82.9187 20 74.5469C20 66.175 26.5444 59.4062 34.6389 59.4062H35.5C38.3632 59.4062 40.6667 61.7887 40.6667 64.75C40.6667 67.7113 38.3632 70.0938 35.5 70.0938H34.6389C32.2708 70.0938 30.3333 72.0977 30.3333 74.5469C30.3333 76.9961 32.2708 79 34.6389 79H41.3556C43.9604 65.6852 53.7771 55.0645 66.3924 51.6578C69.1694 50.9008 72.0972 50.5 75.1111 50.5H102.667ZM116.444 80.7812C116.444 79.364 115.9 78.0048 114.931 77.0026C113.962 76.0005 112.648 75.4375 111.278 75.4375C109.907 75.4375 108.593 76.0005 107.624 77.0026C106.655 78.0048 106.111 79.364 106.111 80.7812C106.111 82.1985 106.655 83.5577 107.624 84.5598C108.593 85.562 109.907 86.125 111.278 86.125C112.648 86.125 113.962 85.562 114.931 84.5598C115.9 83.5577 116.444 82.1985 116.444 80.7812Z" fill="white"/>
<path d="M200.412 88.556C200.159 89.164 199.981 89.7973 199.88 90.456C199.779 91.064 199.703 91.672 199.652 92.28C199.551 93.952 199.297 95.5733 198.892 97.144C198.537 98.664 198.107 100.235 197.6 101.856C197.296 102.667 196.967 103.452 196.612 104.212C196.257 104.921 195.827 105.631 195.32 106.34C194.205 107.86 192.837 108.645 191.216 108.696C189.645 108.747 188.227 108.189 186.96 107.024C186.301 106.365 185.719 105.681 185.212 104.972C184.756 104.263 184.325 103.503 183.92 102.692C182.603 100.007 181.513 97.2453 180.652 94.408C179.841 91.5707 179.056 88.7333 178.296 85.896C177.637 83.2613 177.029 80.652 176.472 78.068C175.965 75.4333 175.484 72.7987 175.028 70.164C174.724 68.5427 174.471 66.9467 174.268 65.376C174.065 63.7547 173.939 62.1587 173.888 60.588C173.888 59.0173 174.141 57.548 174.648 56.18C175.307 54.964 176.193 54.3813 177.308 54.432C177.865 54.4827 178.321 54.6853 178.676 55.04C179.081 55.344 179.385 55.724 179.588 56.18C179.841 56.8387 180.044 57.548 180.196 58.308C180.348 59.0173 180.475 59.752 180.576 60.512C180.931 62.4373 181.285 64.388 181.64 66.364C181.995 68.2893 182.375 70.24 182.78 72.216C183.135 74.04 183.489 75.8893 183.844 77.764C184.249 79.6387 184.655 81.488 185.06 83.312C185.415 84.9333 185.795 86.5547 186.2 88.176C186.605 89.7467 187.087 91.3173 187.644 92.888C188.049 93.952 188.455 94.9907 188.86 96.004C189.265 97.0173 189.747 98.0307 190.304 99.044C190.355 99.1453 190.38 99.2467 190.38 99.348C190.431 99.4493 190.557 99.5253 190.76 99.576C191.165 98.7147 191.419 97.8027 191.52 96.84C192.179 93.952 192.736 91.0387 193.192 88.1C193.648 85.1613 194.053 82.2227 194.408 79.284C194.56 77.5613 194.712 75.864 194.864 74.192C195.016 72.4693 195.193 70.7973 195.396 69.176C195.497 68.4667 195.599 67.7827 195.7 67.124C195.801 66.4653 195.928 65.8067 196.08 65.148C196.283 64.2867 196.713 63.5267 197.372 62.868C198.081 62.26 198.968 62.0067 200.032 62.108C201.096 62.2093 201.907 62.6147 202.464 63.324C203.021 63.8813 203.401 64.5147 203.604 65.224C203.807 65.9333 203.933 66.6427 203.984 67.352C204.339 69.8853 204.719 72.444 205.124 75.028C205.58 77.5613 206.036 80.0947 206.492 82.628C206.847 84.5027 207.252 86.352 207.708 88.176C208.164 90 208.696 91.7987 209.304 93.572C209.709 94.6867 210.165 95.776 210.672 96.84C211.179 97.904 211.787 98.892 212.496 99.804C212.8 100.209 213.003 100.412 213.104 100.412C213.256 100.412 213.509 100.209 213.864 99.804C214.523 98.892 215.055 97.9293 215.46 96.916C215.865 95.9027 216.22 94.8893 216.524 93.876C217.233 91.4947 217.816 89.088 218.272 86.656C218.779 84.224 219.184 81.7667 219.488 79.284C219.64 77.6627 219.767 76.016 219.868 74.344C220.02 72.6213 220.147 70.924 220.248 69.252C220.349 67.8333 220.349 66.44 220.248 65.072C220.147 63.6533 220.045 62.2347 219.944 60.816C219.843 59.3467 219.792 57.9027 219.792 56.484C219.792 55.0147 219.868 53.5453 220.02 52.076C220.273 50.2013 221.312 49.3907 223.136 49.644C223.693 49.796 224.149 50.1 224.504 50.556C224.757 50.9107 224.985 51.316 225.188 51.772C225.391 52.1773 225.543 52.5827 225.644 52.988C226.201 54.8627 226.607 56.788 226.86 58.764C227.113 60.74 227.265 62.6907 227.316 64.616C227.519 73.736 226.607 82.7293 224.58 91.596C224.225 93.268 223.769 94.9147 223.212 96.536C222.655 98.1573 221.971 99.7533 221.16 101.324C220.349 103.097 219.285 104.567 217.968 105.732C216.448 107.201 214.801 107.936 213.028 107.936C211.255 107.885 209.633 107.125 208.164 105.656C206.999 104.491 206.061 103.275 205.352 102.008C204.237 100.083 203.325 98.1067 202.616 96.08C201.957 94.0533 201.349 92.0267 200.792 90C200.741 89.7467 200.691 89.5187 200.64 89.316C200.589 89.0627 200.513 88.8093 200.412 88.556ZM239.955 61.044C239.853 64.6413 239.752 68.0867 239.651 71.38C239.549 74.6733 239.524 77.916 239.575 81.108C239.676 83.388 239.727 85.668 239.727 87.948C239.777 90.228 239.853 92.4827 239.955 94.712C240.005 96.1307 240.031 97.5493 240.031 98.968C240.081 100.387 240.208 101.78 240.411 103.148C240.512 104.009 240.664 104.845 240.867 105.656C241.019 106.213 241.044 106.644 240.943 106.948C240.892 107.252 240.639 107.531 240.183 107.784C239.727 108.088 239.245 108.189 238.739 108.088C238.232 107.987 237.827 107.708 237.523 107.252C237.168 106.695 236.864 106.087 236.611 105.428C236.357 104.769 236.18 104.111 236.079 103.452C235.724 101.375 235.42 99.272 235.167 97.144C234.964 95.016 234.761 92.9133 234.559 90.836C234.407 88.1 234.229 85.3893 234.027 82.704C233.875 79.968 233.723 77.232 233.571 74.496C233.368 71.6587 233.216 68.8467 233.115 66.06C233.013 63.2227 233.165 60.3853 233.571 57.548C233.672 56.788 233.824 56.0533 234.027 55.344C234.229 54.584 234.407 53.824 234.559 53.064C234.711 52.5067 234.989 51.9493 235.395 51.392C235.648 51.0373 235.927 50.7587 236.231 50.556C236.535 50.3533 236.94 50.252 237.447 50.252C237.903 50.3027 238.257 50.48 238.511 50.784C238.815 51.088 239.017 51.4427 239.119 51.848C239.423 52.6587 239.6 53.4693 239.651 54.28C239.752 55.04 239.803 55.8507 239.803 56.712C239.904 57.5227 239.98 58.3333 240.031 59.144C240.081 59.904 240.056 60.5373 239.955 61.044ZM277.323 63.78C276.867 64.4387 276.461 65.072 276.107 65.68C275.803 66.2373 275.524 66.7947 275.271 67.352C274.359 68.9227 273.497 70.544 272.687 72.216C271.876 73.8373 271.065 75.5093 270.255 77.232C269.596 78.5493 268.963 79.892 268.355 81.26C267.747 82.628 267.113 84.0213 266.455 85.44C265.948 86.7067 264.96 87.3907 263.491 87.492C262.832 87.5427 262.224 87.416 261.667 87.112C261.16 86.808 260.704 86.3773 260.299 85.82C259.792 85.0093 259.412 84.0973 259.159 83.084C258.551 80.956 257.892 78.8533 257.183 76.776C256.524 74.6987 255.967 72.6213 255.511 70.544C255.46 70.088 255.232 69.632 254.827 69.176C254.827 69.9867 254.751 70.7467 254.599 71.456C254.497 73.9893 254.371 76.548 254.219 79.132C254.117 81.716 254.016 84.2747 253.915 86.808C253.813 88.6827 253.636 90.5573 253.383 92.432C253.18 94.3067 252.952 96.2067 252.699 98.132C252.648 98.74 252.572 99.348 252.471 99.956C252.42 100.513 252.344 101.121 252.243 101.78C252.192 102.135 252.065 102.489 251.863 102.844C251.66 103.148 251.331 103.351 250.875 103.452C250.469 103.655 250.039 103.68 249.583 103.528C249.177 103.325 248.848 102.996 248.595 102.54C248.392 102.287 248.24 102.008 248.139 101.704C248.088 101.349 248.012 100.995 247.911 100.64C247.556 98.4613 247.252 96.2573 246.999 94.028C246.796 91.7987 246.72 89.5947 246.771 87.416C246.872 82.5013 247.1 77.6627 247.455 72.9C247.607 71.2787 247.733 69.6573 247.835 68.036C247.936 66.4147 248.037 64.768 248.139 63.096C248.24 61.7787 248.367 60.4613 248.519 59.144C248.721 57.776 249 56.4333 249.355 55.116C249.456 54.7107 249.557 54.3307 249.659 53.976C249.811 53.5707 249.988 53.1907 250.191 52.836C251.153 51.316 252.471 50.784 254.143 51.24C255.308 51.544 256.195 52.0507 256.803 52.76C257.411 53.4693 257.892 54.3307 258.247 55.344C259.26 58.08 260.147 60.8667 260.907 63.704C261.717 66.4907 262.553 69.3027 263.415 72.14C263.567 72.748 263.744 73.3813 263.947 74.04C264.149 74.6987 264.352 75.3573 264.555 76.016C264.909 75.9147 265.112 75.7373 265.163 75.484C265.264 75.18 265.365 74.9267 265.467 74.724C266.632 72.8493 267.671 70.924 268.583 68.948C269.495 66.972 270.508 65.0213 271.623 63.096C272.332 61.7787 273.092 60.4867 273.903 59.22C274.713 57.9027 275.549 56.6107 276.411 55.344C276.563 55.0907 276.715 54.812 276.867 54.508C277.069 54.1533 277.221 53.824 277.323 53.52C277.475 52.8107 277.829 52.228 278.387 51.772C278.995 51.316 279.628 51.0627 280.287 51.012C280.996 50.9613 281.655 51.1133 282.263 51.468C282.921 51.8227 283.403 52.3293 283.707 52.988C283.96 53.3427 284.112 53.7733 284.163 54.28C284.264 54.7867 284.34 55.268 284.391 55.724C284.492 56.9907 284.543 58.308 284.543 59.676C284.593 61.044 284.644 62.412 284.695 63.78C284.695 67.0733 284.619 70.3667 284.467 73.66C284.365 76.9533 284.188 80.2467 283.935 83.54C283.833 84.6547 283.783 85.82 283.783 87.036C283.783 88.2013 283.757 89.392 283.707 90.608C283.605 93.04 283.529 95.4973 283.479 97.98C283.479 100.412 283.479 102.844 283.479 105.276C283.479 106.391 283.023 107.075 282.111 107.328C281.097 107.531 280.363 107.151 279.907 106.188C279.501 105.327 279.248 104.389 279.147 103.376C278.944 102.211 278.817 101.045 278.767 99.88C278.716 98.664 278.64 97.4987 278.539 96.384C278.387 94.3067 278.285 92.204 278.235 90.076C278.184 87.948 278.057 85.8453 277.855 83.768C277.601 80.6267 277.449 77.4853 277.399 74.344C277.348 71.2027 277.348 68.0613 277.399 64.92C277.399 64.8187 277.399 64.692 277.399 64.54C277.399 64.388 277.373 64.1347 277.323 63.78ZM321.038 63.78C320.582 64.4387 320.176 65.072 319.822 65.68C319.518 66.2373 319.239 66.7947 318.986 67.352C318.074 68.9227 317.212 70.544 316.402 72.216C315.591 73.8373 314.78 75.5093 313.97 77.232C313.311 78.5493 312.678 79.892 312.07 81.26C311.462 82.628 310.828 84.0213 310.17 85.44C309.663 86.7067 308.675 87.3907 307.206 87.492C306.547 87.5427 305.939 87.416 305.382 87.112C304.875 86.808 304.419 86.3773 304.014 85.82C303.507 85.0093 303.127 84.0973 302.874 83.084C302.266 80.956 301.607 78.8533 300.898 76.776C300.239 74.6987 299.682 72.6213 299.226 70.544C299.175 70.088 298.947 69.632 298.542 69.176C298.542 69.9867 298.466 70.7467 298.314 71.456C298.212 73.9893 298.086 76.548 297.934 79.132C297.832 81.716 297.731 84.2747 297.63 86.808C297.528 88.6827 297.351 90.5573 297.098 92.432C296.895 94.3067 296.667 96.2067 296.414 98.132C296.363 98.74 296.287 99.348 296.186 99.956C296.135 100.513 296.059 101.121 295.958 101.78C295.907 102.135 295.78 102.489 295.578 102.844C295.375 103.148 295.046 103.351 294.59 103.452C294.184 103.655 293.754 103.68 293.298 103.528C292.892 103.325 292.563 102.996 292.31 102.54C292.107 102.287 291.955 102.008 291.854 101.704C291.803 101.349 291.727 100.995 291.626 100.64C291.271 98.4613 290.967 96.2573 290.714 94.028C290.511 91.7987 290.435 89.5947 290.486 87.416C290.587 82.5013 290.815 77.6627 291.17 72.9C291.322 71.2787 291.448 69.6573 291.55 68.036C291.651 66.4147 291.752 64.768 291.854 63.096C291.955 61.7787 292.082 60.4613 292.234 59.144C292.436 57.776 292.715 56.4333 293.07 55.116C293.171 54.7107 293.272 54.3307 293.374 53.976C293.526 53.5707 293.703 53.1907 293.906 52.836C294.868 51.316 296.186 50.784 297.858 51.24C299.023 51.544 299.91 52.0507 300.518 52.76C301.126 53.4693 301.607 54.3307 301.962 55.344C302.975 58.08 303.862 60.8667 304.622 63.704C305.432 66.4907 306.268 69.3027 307.13 72.14C307.282 72.748 307.459 73.3813 307.662 74.04C307.864 74.6987 308.067 75.3573 308.27 76.016C308.624 75.9147 308.827 75.7373 308.878 75.484C308.979 75.18 309.08 74.9267 309.182 74.724C310.347 72.8493 311.386 70.924 312.298 68.948C313.21 66.972 314.223 65.0213 315.338 63.096C316.047 61.7787 316.807 60.4867 317.618 59.22C318.428 57.9027 319.264 56.6107 320.126 55.344C320.278 55.0907 320.43 54.812 320.582 54.508C320.784 54.1533 320.936 53.824 321.038 53.52C321.19 52.8107 321.544 52.228 322.102 51.772C322.71 51.316 323.343 51.0627 324.002 51.012C324.711 50.9613 325.37 51.1133 325.978 51.468C326.636 51.8227 327.118 52.3293 327.422 52.988C327.675 53.3427 327.827 53.7733 327.878 54.28C327.979 54.7867 328.055 55.268 328.106 55.724C328.207 56.9907 328.258 58.308 328.258 59.676C328.308 61.044 328.359 62.412 328.41 63.78C328.41 67.0733 328.334 70.3667 328.182 73.66C328.08 76.9533 327.903 80.2467 327.65 83.54C327.548 84.6547 327.498 85.82 327.498 87.036C327.498 88.2013 327.472 89.392 327.422 90.608C327.32 93.04 327.244 95.4973 327.194 97.98C327.194 100.412 327.194 102.844 327.194 105.276C327.194 106.391 326.738 107.075 325.826 107.328C324.812 107.531 324.078 107.151 323.622 106.188C323.216 105.327 322.963 104.389 322.862 103.376C322.659 102.211 322.532 101.045 322.482 99.88C322.431 98.664 322.355 97.4987 322.254 96.384C322.102 94.3067 322 92.204 321.95 90.076C321.899 87.948 321.772 85.8453 321.57 83.768C321.316 80.6267 321.164 77.4853 321.114 74.344C321.063 71.2027 321.063 68.0613 321.114 64.92C321.114 64.8187 321.114 64.692 321.114 64.54C321.114 64.388 321.088 64.1347 321.038 63.78ZM363.233 54.432C363.233 56.256 362.929 58.0547 362.321 59.828C360.75 65.0973 358.47 70.1387 355.481 74.952C354.467 76.624 353.429 78.296 352.365 79.968C351.351 81.5893 350.338 83.2613 349.325 84.984C348.666 86.2 347.982 87.3907 347.273 88.556C346.614 89.7213 345.93 90.8867 345.221 92.052C344.41 93.3187 343.65 94.6107 342.941 95.928C342.282 97.1947 341.649 98.4867 341.041 99.804C340.838 100.209 340.635 100.589 340.433 100.944C340.281 101.299 340.053 101.603 339.749 101.856C339.242 102.515 338.685 102.743 338.077 102.54C337.165 102.287 336.785 101.679 336.937 100.716C337.038 99.652 337.266 98.6387 337.621 97.676C338.127 96.2067 338.685 94.7373 339.293 93.268C339.951 91.748 340.61 90.2787 341.269 88.86C342.434 86.3267 343.625 83.844 344.841 81.412C346.107 78.9293 347.349 76.4467 348.565 73.964C349.527 71.836 350.515 69.7333 351.529 67.656C352.593 65.5787 353.53 63.5013 354.341 61.424C354.645 60.6133 354.923 59.8027 355.177 58.992C355.43 58.1307 355.658 57.2947 355.861 56.484C355.962 56.028 356.013 55.572 356.013 55.116C356.063 54.6093 356.089 54.128 356.089 53.672C355.937 51.8987 355.025 51.164 353.353 51.468C352.846 51.5187 352.339 51.6707 351.833 51.924C351.377 52.1267 350.921 52.3547 350.465 52.608C349.097 53.52 347.855 54.5587 346.741 55.724C345.677 56.8893 344.638 58.1307 343.625 59.448C343.371 59.8533 343.143 60.2587 342.941 60.664C342.789 61.0693 342.789 61.5507 342.941 62.108C343.042 62.4627 342.991 62.792 342.789 63.096C342.586 63.4 342.307 63.628 341.953 63.78C340.99 64.236 340.103 64.2107 339.293 63.704C338.735 63.2987 338.33 62.8173 338.077 62.26C337.823 61.652 337.671 61.0187 337.621 60.36C337.57 59.6507 337.621 58.916 337.773 58.156C337.925 57.396 338.178 56.6867 338.533 56.028C339.546 53.8493 340.863 51.9747 342.484 50.404C344.106 48.8333 345.93 47.44 347.957 46.224C348.818 45.6667 349.705 45.2613 350.617 45.008C351.529 44.704 352.466 44.5013 353.429 44.4C355.911 44.248 358.039 44.8813 359.813 46.3C361.586 47.668 362.65 49.5427 363.005 51.924C363.106 52.3293 363.182 52.7347 363.233 53.14C363.334 53.5453 363.334 53.976 363.233 54.432ZM337.165 111.584C337.215 111.584 337.266 111.584 337.317 111.584C337.418 111.635 337.519 111.66 337.621 111.66C339.445 111.863 340.205 112.749 339.901 114.32C339.698 115.333 339.242 116.093 338.533 116.6C337.874 117.157 337.114 117.335 336.253 117.132C335.493 116.98 334.935 116.6 334.581 115.992C334.226 115.384 334.099 114.7 334.201 113.94C334.251 113.231 334.555 112.623 335.113 112.116C335.721 111.66 336.405 111.483 337.165 111.584ZM370.377 82.02V71C370.428 68.6187 370.453 66.2627 370.453 63.932C370.504 61.6013 370.58 59.2707 370.681 56.94C370.782 55.3187 370.884 53.672 370.985 52C371.137 50.2773 371.314 48.58 371.517 46.908C371.618 45.8947 371.872 45.0333 372.277 44.324C372.936 42.956 373.898 42.348 375.165 42.5C375.874 42.5507 376.457 42.7787 376.913 43.184C377.369 43.5893 377.698 44.1213 377.901 44.78C378.154 45.4387 378.256 46.1227 378.205 46.832C378.205 47.5413 378.18 48.2507 378.129 48.96C378.028 50.2267 377.977 51.4933 377.977 52.76C377.977 53.976 377.952 55.192 377.901 56.408C377.85 58.384 377.698 60.3347 377.445 62.26C377.242 64.1853 377.04 66.1107 376.837 68.036C376.786 68.9987 376.736 69.9613 376.685 70.924C376.685 71.8867 376.634 72.824 376.533 73.736C376.33 75.2053 376.178 76.7 376.077 78.22C376.026 79.74 375.9 81.2347 375.697 82.704C375.596 83.5653 375.52 84.4267 375.469 85.288C375.418 86.1493 375.342 87.036 375.241 87.948C375.089 89.62 374.937 91.3173 374.785 93.04C374.684 94.712 374.532 96.4093 374.329 98.132C374.329 98.4867 374.278 98.8413 374.177 99.196C374.076 99.5 373.949 99.8293 373.797 100.184C373.392 100.995 372.809 101.324 372.049 101.172C371.34 101.172 370.858 100.767 370.605 99.956C370.402 99.2973 370.276 98.664 370.225 98.056C370.225 97.448 370.225 96.8147 370.225 96.156C370.225 94.0787 370.225 91.9253 370.225 89.696C370.225 87.416 370.276 84.8573 370.377 82.02ZM374.481 112.496C374.43 112.851 374.38 113.155 374.329 113.408C374.278 113.712 374.202 114.016 374.101 114.32C373.544 115.637 372.556 116.245 371.137 116.144C370.58 116.043 370.073 115.739 369.617 115.232C369.212 114.725 369.009 114.143 369.009 113.484C369.009 112.775 369.136 112.091 369.389 111.432C369.693 110.824 370.174 110.343 370.833 109.988C371.542 109.431 372.277 109.304 373.037 109.608C373.797 109.963 374.228 110.571 374.329 111.432C374.43 111.635 374.456 111.812 374.405 111.964C374.405 112.116 374.43 112.293 374.481 112.496Z" fill="white"/>
</svg>
